<svg xmlns="http://www.w3.org/2000/svg" version="1.1" xmlns:xlink="http://www.w3.org/1999/xlink" xmlns:svgjs="http://svgjs.dev/svgjs" viewBox="0 0 600 600" opacity="0.71"><path d="M59.41176223754883,338.45587158203125C55.490193684895836,326.691167195638,63.725491205851235,315.7107899983724,66.47058868408203,305.51470947265625C69.21568616231282,295.3186289469401,71.1764653523763,286.56043497721356,75.8823471069336,277.2793884277344C80.58822886149089,267.9983418782552,87.90849304199219,256.88725026448566,94.70587921142578,249.82843017578125C101.50326538085938,242.7696100870768,108.30065027872722,236.4950968424479,116.66666412353516,234.9264678955078C125.0326779683431,233.35783894856772,133.66013209025064,240.2859369913737,144.90196228027344,240.41665649414062C156.14379247029623,240.54737599690756,174.05228678385416,237.67156982421875,184.11764526367188,235.71078491210938C194.1830037434896,233.75,195.49019368489584,232.18136088053384,205.2941131591797,228.65194702148438C215.09803263346353,225.1225331624349,226.33985646565756,219.24018351236978,242.941162109375,214.5343017578125C259.54246775309247,209.82842000325522,289.08495076497394,202.76959737141928,304.9019470214844,200.41665649414062C320.7189432779948,198.06371561686197,326.07843526204425,196.88724517822266,337.8431396484375,200.41665649414062C349.60784403483075,203.9460678100586,364.24834696451825,215.44933319091797,375.49017333984375,221.59312438964844C386.73199971516925,227.7369155883789,395.882329305013,233.3578338623047,405.2940979003906,237.27940368652344C414.70586649576825,241.2009735107422,422.4182993570964,240.678098042806,431.9607849121094,245.12254333496094C441.5032704671224,249.56698862711588,454.44443766276044,252.3120905558268,462.54901123046875,263.9460754394531C470.65358479817706,275.5800603230794,478.62744140625,299.7630564371745,480.5882263183594,314.92645263671875C482.54901123046875,330.089848836263,478.1045735677083,344.5996551513672,474.313720703125,354.92645263671875C470.5228678385417,365.2532501220703,468.5620625813802,367.47547403971356,457.8431091308594,376.8872375488281C447.12415568033856,386.2990010579427,421.76470438639325,405.1225229899089,410,411.39703369140625C398.23529561360675,417.6715443929036,398.8888702392578,413.22711181640625,387.2548828125,414.5343017578125C375.6208953857422,415.84149169921875,351.30718485514325,417.2793884277344,340.1960754394531,419.24017333984375C329.084966023763,421.2009582519531,333.6601206461589,421.7238464355469,320.5882263183594,426.29901123046875C307.5163319905599,430.8741760253906,278.62745412190753,443.5539093017578,261.76470947265625,446.691162109375C244.90196482340494,449.8284149169922,234.96731567382812,449.30553181966144,219.41175842285156,445.1225280761719C203.856201171875,440.9395243326823,181.76469930013022,428.2598063151042,168.43136596679688,421.5931396484375C155.09803263346353,414.9264729817708,147.77777099609375,410.22057088216144,139.41175842285156,405.1225280761719C131.04574584960938,400.0244852701823,126.47058359781902,395.8414815266927,118.23529052734375,391.0048828125C109.99999745686848,386.1682840983073,99.80392138163249,384.86110432942706,90,376.1029357910156C80.19607861836751,367.3447672526042,63.33333079020182,350.2205759684245,59.41176223754883,338.45587158203125C55.490193684895836,326.691167195638,63.725491205851235,315.7107899983724,66.47058868408203,305.51470947265625" fill="#de7500" transform="matrix(1.322362140842875,0.02166155212078956,0.26021507268394045,1.0176730423685505,-151.51599686929256,-11.57392971543237)" stroke-width="0" stroke="hsl(340, 45%, 30%)" fill-opacity="0.32"></path><defs></defs></svg>